:SAMPLES-PER-SECOND 30
:FULLY-SPECIFIED
:DEGREES
482
root  -13.4425 45.6831 -9.86667 2.13792 -24.0336 3.32066
RightUpLeg  -1.43579 -4.44278 -5.87453
RightLeg  17.8807 8.50724 2.14429
RightFoot  46.2469 -2.43262 6.07035
RightToes  -39.7596 -0.216566 -0.324828
Spine  0.737793 -6.78168 -6.58575
Spine1  2.51781 -13.8501 -12.4876
HEad  34.1219 -48.7234 21.2145
LeftShoulder1  0 -2.42657e-020 -4.95415e-022
LeftArm  -10.7056 -74.2343 -67.352
LeftForeArm  45.4522 -59.6168 -17.5575
LeftHand  -0.369319 -9.67809 3.99324
RightShoulder  0 2.42657e-020 1.07489e-018
RightArm  -109.088 25.0351 -56.7983
RightForeArm  62.8636 34.1223 6.80568
RightHand  -6.1692 19.7493 -34.0428
LeftUpLeg  1.97432 2.29905 9.96935
LeftLeg  40.0713 -5.44936 -4.00881
LeftFoot  24.4271 0.6432 -2.97089
LeftToes  -27.5002 1.33192e-006 1.13262e-007
483
root  -14.5647 46.9607 -9.43101 0.575256 -25.565 2.15094
RightUpLeg  -1.65091 -4.25874 -4.69599
RightLeg  26.5574 8.92662 3.74171
RightFoot  43.6048 -2.40417 6.38294
RightToes  -39.1924 -0.219206 -0.323114
Spine  1.19236 -6.41342 -6.28052
Spine1  3.2889 -13.1373 -11.7816
HEad  35.5888 -48.7816 20.7148
LeftShoulder1  0 -2.42657e-020 -4.95415e-022
LeftArm  -13.6369 -70.9099 -64.4957
LeftForeArm  45.1878 -59.4712 -17.4521
LeftHand  -0.381494 -9.5444 4.20035
RightShoulder  0 2.42657e-020 1.07489e-018
RightArm  -111.883 25.932 -55.5487
RightForeArm  63.8875 35.7146 7.22475
RightHand  -5.67052 18.5827 -33.3248
LeftUpLeg  -0.515833 1.44836 10.1212
LeftLeg  53.4247 -7.44478 -8.70793
LeftFoot  26.0591 1.23054 -5.31393
LeftToes  -29.3592 1.33192e-006 1.13262e-007
484
root  -15.6369 47.7735 -9.03516 -0.472916 -26.6021 1.12535
RightUpLeg  -1.85711 -5.66615 -4.17761
RightLeg  33.2618 6.46116 3.64324
RightFoot  43.6674 -1.75843 4.76457
RightToes  -39.99 -0.222399 -0.320741
Spine  1.53101 -5.9477 -6.05099
Spine1  3.80943 -12.2199 -11.2034
HEad  35.4528 -49.0293 20.4872
LeftShoulder1  0 -2.42657e-020 -4.95415e-022
LeftArm  -16.4723 -67.6083 -61.8053
LeftForeArm  45.9539 -58.4933 -16.7644
LeftHand  -0.333127 -9.17731 3.78174
RightShoulder  0 2.42657e-020 1.07489e-018
RightArm  -112.098 25.584 -53.7809
RightForeArm  61.3766 36.1453 7.34865
RightHand  -3.52303 10.1538 -37.8409
LeftUpLeg  -3.77481 0.680374 10.2065
LeftLeg  66.3983 -7.11852 -13.5231
LeftFoot  22.6614 1.25601 -6.26228
LeftToes  -37.6851 1.33192e-006 1.13262e-007
485
root  -16.5479 48.1472 -8.68337 -1.23019 -27.0166 0.746262
RightUpLeg  -1.56108 -7.02476 -4.61268
RightLeg  36.7169 5.01035 3.23388
RightFoot  44.7368 -1.41213 3.80809
RightToes  -40.6764 -0.223909 -0.318911
Spine  1.91097 -5.37392 -5.93949
Spine1  4.42467 -11.0718 -10.836
HEad  32.7519 -50.1707 20.8801
LeftShoulder1  0 -2.42657e-020 -4.95415e-022
LeftArm  -20.0249 -65.387 -56.7282
LeftForeArm  40.3647 -56.7233 -15.629
LeftHand  -0.32278 -8.26852 4.0968
RightShoulder  0 2.42657e-020 1.07489e-018
RightArm  -111.548 23.6322 -53.1153
RightForeArm  57.7613 34.6794 6.96436
RightHand  -0.429986 1.01015 -46.0132
LeftUpLeg  -8.83106 0.171366 9.53381
LeftLeg  79.3103 -4.23768 -16.1131
LeftFoot  17.4316 0.824764 -5.37609
LeftToes  -37.1908 1.33192e-006 1.13262e-007
486
root  -17.4462 48.1358 -8.38953 -2.00833 -27.596 0.495575
RightUpLeg  -0.167706 -6.54937 -4.65765
RightLeg  36.5486 4.54069 2.91165
RightFoot  44.0315 -1.22276 3.40095
RightToes  -40.3532 -0.221311 -0.317109
Spine  2.39611 -4.8025 -5.82717
Spine1  5.11641 -9.81116 -10.5608
HEad  30.2047 -50.2483 21.4394
LeftShoulder1  0 -2.42657e-020 -4.95415e-022
LeftArm  -26.7239 -62.5578 -48.5255
LeftForeArm  39.5481 -54.7435 -14.4785
LeftHand  -0.209685 -8.41671 2.48117
RightShoulder  0 2.42657e-020 1.07489e-018
RightArm  -113.549 23.4082 -52.6511
RightForeArm  57.5589 30.907 6.0145
RightHand  0.899453 -1.90096 -50.1182
LeftUpLeg  -14.2012 0.399036 8.74121
LeftLeg  90.2857 -0.924397 -15.3209
LeftFoot  13.9384 0.48672 -3.98015
LeftToes  -41.4323 1.33192e-006 1.13262e-007
487
root  -18.2469 47.7148 -8.2158 -2.37431 -28.3097 0.677383
RightUpLeg  1.25596 -7.36596 -5.51857
RightLeg  33.354 4.09711 2.31871
RightFoot  43.6379 -1.03437 2.96077
RightToes  -38.9005 -0.20976 -0.308827
Spine  2.82118 -4.14144 -5.81438
Spine1  5.62898 -8.31265 -10.693
HEad  27.8572 -51.2574 22.0001
LeftShoulder1  0 -2.42657e-020 -4.95415e-022
LeftArm  -34.9956 -59.4283 -37.307
LeftForeArm  39.0492 -51.8679 -13.0029
LeftHand  -0.274699 -8.04402 3.53839
RightShoulder  0 2.42657e-020 1.07489e-018
RightArm  -116.122 23.4777 -52.8533
RightForeArm  59.1389 23.8346 4.41829
RightHand  0.334809 -0.715772 -49.3677
LeftUpLeg  -21.034 0.522367 7.0907
LeftLeg  98.7357 1.36522 -15.003
LeftFoot  9.12911 0.205592 -2.57477
LeftToes  -35.1994 1.33192e-006 1.13262e-007
488
root  -19.0461 46.9316 -8.11203 -2.8322 -30.5695 1.61781
RightUpLeg  2.54006 -7.38687 -6.93685
RightLeg  27.5886 3.74345 1.6514
RightFoot  44.7427 -0.927213 2.63004
RightToes  -38.1448 -0.203835 -0.304404
Spine  3.25354 -3.0594 -6.00304
Spine1  6.09922 -5.97472 -11.3842
HEad  24.7677 -52.2443 23.6337
LeftShoulder1  0 -2.42657e-020 -4.95415e-022
LeftArm  -44.4744 -54.7591 -23.3566
LeftForeArm  33.1758 -48.2506 -11.4103
LeftHand  -0.259203 -7.55138 3.55946
RightShoulder  0 2.42657e-020 1.07489e-018
RightArm  -120.718 23.0569 -53.9509
RightForeArm  66.7346 14.2318 2.49974
RightHand  -1.93416 4.81659 -43.421
LeftUpLeg  -27.2698 2.00027 4.63353
LeftLeg  101.068 1.85337 -13.9568
LeftFoot  7.09231 0.117021 -1.88815
LeftToes  -36.3401 1.33192e-006 1.13262e-007
489
root  -19.8061 45.7613 -8.02772 -3.79124 -35.1634 3.76318
RightUpLeg  2.66436 -5.02653 -8.77146
RightLeg  20.9467 3.29974 1.02308
RightFoot  44.7615 -0.732325 2.15584
RightToes  -36.3805 -0.190234 -0.293776
Spine  3.50333 -1.65605 -6.90964
Spine1  6.32903 -3.13842 -13.2
HEad  21.1501 -53.2547 26.82
LeftShoulder1  0 -2.42657e-020 -4.95415e-022
LeftArm  -52.5369 -46.5921 -10.3895
LeftForeArm  30.8308 -45.774 -10.448
LeftHand  -0.171917 -7.06707 2.41594
RightShoulder  0 2.42657e-020 1.07489e-018
RightArm  -116.423 22.3445 -53.444
RightForeArm  65.5757 4.97569 0.82752
RightHand  -3.83382 15.827 -26.7164
LeftUpLeg  -31.8626 4.80554 1.25711
LeftLeg  96.2053 0.558834 -12.3268
LeftFoot  5.38906 0.0640501 -1.36089
LeftToes  -33.5869 1.33192e-006 1.13262e-007
490
root  -20.4864 44.173 -8.00988 -5.00916 -40.9838 6.66393
RightUpLeg  1.60398 -0.838214 -10.4833
RightLeg  12.9014 3.1856 0.517831
RightFoot  45.5464 -0.717239 2.08589
RightToes  -35.3661 -0.182564 -0.287478
Spine  3.45446 -0.416776 -8.16907
Spine1  6.10435 -0.584912 -15.4909
HEad  16.2312 -53.7341 29.9861
LeftShoulder1  0 -2.42657e-020 -4.95415e-022
LeftArm  -55.6512 -33.6198 -0.671408
LeftForeArm  29.2878 -45.7552 -10.4417
LeftHand  -0.195896 -6.08953 3.31542
RightShoulder  0 2.42657e-020 1.07489e-018
RightArm  -102.78 22.8985 -51.4525
RightForeArm  56.0912 -0.170808 -0.0548626
RightHand  -3.00301 16.3263 -20.3489
LeftUpLeg  -35.0727 8.12946 -1.9423
LeftLeg  85.2605 -1.35983 -9.15268
LeftFoot  4.52139 0.0346869 -0.878653
LeftToes  -29.7782 1.33192e-006 1.13262e-007
491
root  -21.1103 42.1535 -8.00083 -6.28511 -46.5289 10.2168
RightUpLeg  -2.01812 -0.484795 -12.5494
RightLeg  7.28764 3.24872 0.20603
RightFoot  41.0941 -0.645676 2.10003
RightToes  -33.0532 -0.165501 -0.272616
Spine  3.11285 0.582427 -9.58887
Spine1  5.28059 1.58918 -17.6833
HEad  11.0019 -53.6586 33.3412
LeftShoulder1  0 -2.42657e-020 -4.95415e-022
LeftArm  -54.253 -18.8575 5.23941
LeftForeArm  28.0087 -46.8619 -10.8609
LeftHand  -0.1816 -5.32717 3.53669
RightShoulder  0 2.42657e-020 1.07489e-018
RightArm  -100.32 23.847 -48.9627
RightForeArm  51.4664 -0.159648 -0.0442572
RightHand  -2.66052 14.304 -20.6086
LeftUpLeg  -36.7019 11.0262 -4.64684
LeftLeg  69.0204 -2.64396 -5.75237
LeftFoot  7.07795 0.0489151 -0.790922
LeftToes  -25.7863 1.33192e-006 1.13262e-007
492
root  -21.7989 39.7619 -7.91055 -7.12411 -51.0452 12.3806
RightUpLeg  -6.41486 -5.40909 -12.863
RightLeg  6.16635 3.57778 0.156506
RightFoot  38.6392 -0.672253 2.29489
RightToes  -30.3206 -0.146135 -0.254188
Spine  3.05359 1.0537 -10.0516
Spine1  5.14379 2.68102 -18.7505
HEad  5.06192 -53.8024 36.6857
LeftShoulder1  0 -2.42657e-020 -4.95415e-022
LeftArm  -47.6037 -2.67998 8.02845
LeftForeArm  28.8947 -53.6302 -13.8892
LeftHand  -0.209047 -4.87308 4.54633
RightShoulder  0 2.42657e-020 1.07489e-018
RightArm  -102.914 23.964 -46.9611
RightForeArm  48.427 -0.151863 -0.0377923
RightHand  -3.42609 17.5767 -21.5348
LeftUpLeg  -35.092 12.455 -5.28584
LeftLeg  48.1331 -4.30112 -4.21494
LeftFoot  13.7842 0.166838 -1.38021
LeftToes  -28.1958 1.33192e-006 1.13262e-007
493
root  -22.6265 36.9917 -7.82231 -6.31723 -52.7743 11.0473
RightUpLeg  -8.08641 6.01664 -11.6453
RightLeg  11.6163 -1.17239 -0.162071
RightFoot  29.0497 0.238486 -0.542926
RightToes  -50.9848 -0.311629 -0.368409
Spine  3.87033 0.936228 -9.19451
Spine1  6.67912 2.57761 -18.2197
HEad  0.200005 -54.7631 39.0381
LeftShoulder1  0 -2.42657e-020 -4.95415e-022
LeftArm  -38.891 12.1295 7.69429
LeftForeArm  36.28 -65.907 -23.3518
LeftHand  -0.289827 -5.94604 5.21223
RightShoulder  0 2.42657e-020 1.07489e-018
RightArm  -107.008 22.3287 -47.5374
RightForeArm  53.6303 -0.164976 -0.0491071
RightHand  -2.70692 16.3527 -18.3132
LeftUpLeg  -31.8987 6.81228 -1.30531
LeftLeg  29.3662 -15.8923 -7.5058
LeftFoot  20.8787 1.17129 -6.35097
LeftToes  -34.9742 1.33192e-006 1.13262e-007
494
root  -23.4112 34.042 -7.75061 -3.80576 -50.1479 6.03108
RightUpLeg  -9.94665 2.52959 -8.54452
RightLeg  25.2277 -0.155806 -0.0660847
RightFoot  1.00954 0.00320145 0.0141569
RightToes  -42.3966 -0.237906 -0.328256
Spine  5.21077 -0.0102741 -7.41256
Spine1  9.02451 1.01819 -15.8344
HEad  -3.35342 -56.8894 38.7318
LeftShoulder1  0 -2.42657e-020 -4.95415e-022
LeftArm  -29.7177 18.1949 2.1268
LeftForeArm  60.0411 -75.7428 -44.3882
LeftHand  -0.327139 -5.98783 5.88556
RightShoulder  0 2.42657e-020 1.07489e-018
RightArm  -102.89 21.1204 -48.809
RightForeArm  57.1926 -0.173336 -0.0575183
RightHand  -2.86503 18.4254 -17.1659
LeftUpLeg  -34.0237 -8.08228 7.28158
LeftLeg  28.611 -26.7195 -11.8073
LeftFoot  20.5348 2.01304 -11.0794
LeftToes  -39.1924 1.33192e-006 1.13262e-007
495
root  -24.1884 31.7919 -7.52571 0.131485 -51.8356 -0.882111
RightUpLeg  -13.899 7.97167 -2.83419
RightLeg  39.2991 -3.54046 -2.55352
RightFoot  -13.2209 0.065048 0.938891
RightToes  -38.8174 -0.209106 -0.308345
Spine  6.18736 0.00759164 -4.95532
Spine1  10.7306 1.61945 -12.9184
HEad  -5.57328 -56.5493 37.1444
LeftShoulder1  0 -2.42657e-020 -4.95415e-022
LeftArm  -21.6945 23.7357 -11.4431
LeftForeArm  114.688 -79.8741 -93.5443
LeftHand  -0.690769 -7.971 9.52828
RightShoulder  0 2.42657e-020 1.07489e-018
RightArm  -108.79 20.4917 -46.5047
RightForeArm  56.0987 3.1187 0.521454
RightHand  -3.05821 18.716 -18.0381
LeftUpLeg  -36.7974 -17.1578 16.2443
LeftLeg  38.9858 -23.1811 -15.5805
LeftFoot  15.4536 1.06506 -7.83773
LeftToes  -39.3858 1.33192e-006 1.13262e-007
496
root  -24.7229 30.1768 -7.10518 4.45746 -59.1725 -6.19514
RightUpLeg  -22.3631 15.9985 0.731572
RightLeg  55.94 -4.22816 -5.50586
RightFoot  -16.383 0.218202 1.89335
RightToes  -39.9177 -0.217826 -0.314657
Spine  6.92674 -0.116492 -3.81992
Spine1  12.3042 1.88864 -12.0756
HEad  -11.1669 -51.1781 37.4909
LeftShoulder1  0 -2.42657e-020 -4.95415e-022
LeftArm  -22.792 32.2614 -34.3502
LeftForeArm  136.435 -79.1673 -111.214
LeftHand  -1.12153 -9.36221 13.2722
RightShoulder  0 2.42657e-020 1.07489e-018
RightArm  -112.561 21.2471 -44.5922
RightForeArm  55.413 5.62641 0.964829
RightHand  -2.89547 18.922 -16.8831
LeftUpLeg  -36.8509 -16.6782 19.4558
LeftLeg  46.7401 -12.703 -11.6177
LeftFoot  0.200832 -0.000219672 0.125334
LeftToes  -43.6363 1.33192e-006 1.13262e-007
